<svg xmlns="http://www.w3.org/2000/svg" xmlns:xlink="http://www.w3.org/1999/xlink" viewBox="257 -228 62 73.149">
  <defs>
    <style>
      .cls-1 {
        fill: #81d100;
      }

      .cls-2 {
        fill: #fff;
      }

      .cls-3 {
        stroke: rgba(0,0,0,0);
      }

      .cls-4 {
        filter: url(#Path_84);
      }
    </style>
    <filter id="Path_84" x="257" y="-228" width="62" height="73.149" filterUnits="userSpaceOnUse">
      <feOffset dy="3" input="SourceAlpha"/>
      <feGaussianBlur stdDeviation="3" result="blur"/>
      <feFlood flood-opacity="0.173"/>
      <feComposite operator="in" in2="blur"/>
      <feComposite in="SourceGraphic"/>
    </filter>
  </defs>
  <g id="Group_14" data-name="Group 14" transform="translate(-37 -908)">
    <g class="cls-4" transform="matrix(1, 0, 0, 1, 37, 908)">
      <path id="Path_84-2" data-name="Path 84" class="cls-1" d="M70.515.014A22.007,22.007,0,0,0,49.7,26.179h0s.034.237.147.69a22.052,22.052,0,0,0,1.481,4.365c2.2,5.224,7.3,13.965,18.748,23.474a1.911,1.911,0,0,0,2.442,0c11.443-9.5,16.543-18.239,18.759-23.485a21.117,21.117,0,0,0,1.481-4.365c.1-.441.147-.69.147-.69h0A22.012,22.012,0,0,0,70.515.014Z" transform="translate(216.7 -222)"/>
    </g>
    <circle id="Ellipse_52" data-name="Ellipse 52" class="cls-2" cx="15" cy="15" r="15" transform="translate(310 693)"/>
    <path id="Path_80" data-name="Path 80" class="cls-3" d="M10,2.36,6.034-8.544H3.966L0,2.36H2.8L3.338.736H6.692L7.2,2.36ZM5.988-1.5h-1.9l.98-2.91Z" transform="translate(320 710.544)"/>
  </g>
</svg>
