<svg xmlns="http://www.w3.org/2000/svg" viewBox="1003 256 24.226 30.365">
  <defs>
    <style>
      .cls-1 {
        fill: #ca482a;
      }

      .cls-2 {
        fill: #fff;
      }
    </style>
  </defs>
  <g id="Group_25" data-name="Group 25" transform="translate(568 -404.255)">
    <g id="Group_17" data-name="Group 17" transform="translate(435 660.255)">
      <path id="Path_84" data-name="Path 84" class="cls-1" d="M60.98.008A12.117,12.117,0,0,0,49.518,14.414h0s.019.131.081.38a12.142,12.142,0,0,0,.816,2.4c1.214,2.876,4.022,7.689,10.322,12.925a1.052,1.052,0,0,0,1.345,0c6.3-5.23,9.108-10.042,10.329-12.931a11.627,11.627,0,0,0,.816-2.4c.056-.243.081-.38.081-.38h0A12.12,12.12,0,0,0,60.98.008Z" transform="translate(-49.299 0)"/>
      <circle id="Ellipse_52" data-name="Ellipse 52" class="cls-2" cx="8.259" cy="8.259" r="8.259" transform="translate(3.854 3.854)"/>
      <path id="Union_2" data-name="Union 2" class="cls-1" d="M7.158,8.259V3.854H1.652V8.259a.551.551,0,0,1-1.1,0V3.028A.551.551,0,0,1,.3,1.985L4.158.058a.553.553,0,0,1,.493,0L8.505,1.985a.551.551,0,0,1-.247,1.043V8.259a.551.551,0,1,1-1.1,0ZM5.506,2.753h.551V2.2H5.506Zm-1.652,0h1.1V2.2h-1.1Zm-1.1,0H3.3V2.2H2.753ZM5.23,8.81a.551.551,0,0,1-.551-.551V7.433a.551.551,0,0,1,.551-.55h.275v.55h.275v-.55h.275a.551.551,0,0,1,.551.55v.826a.551.551,0,0,1-.551.551Zm-2.477,0A.551.551,0,0,1,2.2,8.259V7.433a.551.551,0,0,1,.551-.55h.275v.55H3.3v-.55h.275a.551.551,0,0,1,.551.55v.826a.551.551,0,0,1-.551.551ZM5.23,6.332a.551.551,0,0,1-.551-.551V4.955A.551.551,0,0,1,5.23,4.4h.275v.551h.275V4.4h.275a.551.551,0,0,1,.551.551v.826a.551.551,0,0,1-.551.551Zm-2.477,0A.551.551,0,0,1,2.2,5.781V4.955A.551.551,0,0,1,2.753,4.4h.275v.551H3.3V4.4h.275a.551.551,0,0,1,.551.551v.826a.551.551,0,0,1-.551.551Z" transform="translate(7.708 7.708)"/>
    </g>
  </g>
</svg>
