<svg xmlns="http://www.w3.org/2000/svg" viewBox="807.756 205.298 16.959 11.028">
  <defs>
    <style>
      .cls-1 {
        fill: #fff;
        stroke: #fff;
      }
    </style>
  </defs>
  <g id="checked_1_" data-name="checked (1)" transform="translate(808.314 163.661)">
    <path id="Path_78" data-name="Path 78" class="cls-1" d="M15.716,42.381a.591.591,0,0,0-.856,0L7.034,50.453a2.564,2.564,0,0,1-1.345.489,1.839,1.839,0,0,1-1.345-.489l-3.3-3.3a.591.591,0,0,0-.856,0,.591.591,0,0,0,0,.856l3.3,3.3a3.516,3.516,0,0,0,2.2.856,3.26,3.26,0,0,0,2.2-.856l7.827-8.071a.591.591,0,0,0,0-.856Z" transform="translate(0)"/>
  </g>
</svg>
