<svg xmlns="http://www.w3.org/2000/svg" xmlns:xlink="http://www.w3.org/1999/xlink" viewBox="213 -557 62 73.149">
  <defs>
    <style>
      .cls-1 {
        fill: #81d100;
      }

      .cls-2 {
        fill: #fff;
      }

      .cls-3 {
        stroke: rgba(0,0,0,0);
      }

      .cls-4 {
        filter: url(#Path_82);
      }
    </style>
    <filter id="Path_82" x="213" y="-557" width="62" height="73.149" filterUnits="userSpaceOnUse">
      <feOffset dy="3" input="SourceAlpha"/>
      <feGaussianBlur stdDeviation="3" result="blur"/>
      <feFlood flood-opacity="0.173"/>
      <feComposite operator="in" in2="blur"/>
      <feComposite in="SourceGraphic"/>
    </filter>
  </defs>
  <g id="Group_15" data-name="Group 15" transform="translate(9 -855)">
    <g class="cls-4" transform="matrix(1, 0, 0, 1, -9, 855)">
      <path id="Path_82-2" data-name="Path 82" class="cls-1" d="M70.515.014A22.007,22.007,0,0,0,49.7,26.179h0s.034.237.147.69a22.052,22.052,0,0,0,1.481,4.365c2.2,5.224,7.3,13.965,18.748,23.474a1.911,1.911,0,0,0,2.442,0c11.443-9.5,16.543-18.239,18.759-23.485a21.117,21.117,0,0,0,1.481-4.365c.1-.441.147-.69.147-.69h0A22.012,22.012,0,0,0,70.515.014Z" transform="translate(172.7 -551)"/>
    </g>
    <circle id="Ellipse_51" data-name="Ellipse 51" class="cls-2" cx="15" cy="15" r="15" transform="translate(220 311)"/>
    <path id="Path_83" data-name="Path 83" class="cls-3" d="M1.38-14.28H7a7.436,7.436,0,0,1,1.555.151,3.358,3.358,0,0,1,1.2.493,2.294,2.294,0,0,1,.778.911,3.2,3.2,0,0,1,.276,1.4,2.615,2.615,0,0,1-.41,1.505,2.976,2.976,0,0,1-1.212.987,2.87,2.87,0,0,1,1.647,1.112A3.308,3.308,0,0,1,11.38-5.8a3.286,3.286,0,0,1-.351,1.564,3.047,3.047,0,0,1-.945,1.079,4.181,4.181,0,0,1-1.355.619,6.105,6.105,0,0,1-1.564.2H1.38Zm5.435,9.9a3.5,3.5,0,0,0,.736-.075,1.806,1.806,0,0,0,.619-.251A1.262,1.262,0,0,0,8.6-5.183a1.641,1.641,0,0,0,.159-.769,1.544,1.544,0,0,0-.518-1.313,2.212,2.212,0,0,0-1.371-.393H4.005V-4.38ZM6.664-9.447a1.888,1.888,0,0,0,1.154-.334,1.263,1.263,0,0,0,.452-1.087,1.388,1.388,0,0,0-.151-.686,1.113,1.113,0,0,0-.4-.418,1.692,1.692,0,0,0-.577-.209,3.828,3.828,0,0,0-.677-.059H4.005v2.793Z" transform="translate(229 334)"/>
  </g>
</svg>
